<mxfile host="app.diagrams.net" modified="2023-09-28T15:40:25.956Z" agent="Mozilla/5.0 (Windows NT 10.0; Win64; x64) AppleWebKit/537.36 (KHTML, like Gecko) Chrome/116.0.0.0 Safari/537.36" etag="ZfXr1rl_SngmotPP8RXr" version="21.8.1" type="github">
  <diagram name="Page-1" id="nDi3K2-DmWgYyA50z-ad">
    <mxGraphModel dx="880" dy="438" grid="1" gridSize="10" guides="1" tooltips="1" connect="1" arrows="1" fold="1" page="1" pageScale="1" pageWidth="850" pageHeight="1100" math="0" shadow="0">
      <root>
        <mxCell id="0" />
        <mxCell id="1" parent="0" />
        <mxCell id="1MM2bpCmUslDVCENX9zD-2" value="&lt;font style=&quot;font-size: 16px;&quot;&gt;start&lt;/font&gt;" style="strokeWidth=2;html=1;shape=mxgraph.flowchart.start_1;whiteSpace=wrap;" vertex="1" parent="1">
          <mxGeometry x="375" y="20" width="100" height="60" as="geometry" />
        </mxCell>
        <mxCell id="1MM2bpCmUslDVCENX9zD-5" value="true" style="edgeStyle=orthogonalEdgeStyle;rounded=0;orthogonalLoop=1;jettySize=auto;html=1;exitX=0.5;exitY=1;exitDx=0;exitDy=0;exitPerimeter=0;entryX=0.5;entryY=0;entryDx=0;entryDy=0;" edge="1" parent="1" source="1MM2bpCmUslDVCENX9zD-3" target="1MM2bpCmUslDVCENX9zD-4">
          <mxGeometry relative="1" as="geometry" />
        </mxCell>
        <mxCell id="1MM2bpCmUslDVCENX9zD-8" value="false" style="edgeStyle=orthogonalEdgeStyle;rounded=0;orthogonalLoop=1;jettySize=auto;html=1;exitX=1;exitY=0.5;exitDx=0;exitDy=0;exitPerimeter=0;entryX=0;entryY=0.5;entryDx=0;entryDy=0;" edge="1" parent="1" source="1MM2bpCmUslDVCENX9zD-3" target="1MM2bpCmUslDVCENX9zD-7">
          <mxGeometry relative="1" as="geometry" />
        </mxCell>
        <mxCell id="1MM2bpCmUslDVCENX9zD-3" value="&lt;font style=&quot;font-size: 17px;&quot;&gt;Check login&lt;/font&gt;" style="strokeWidth=2;html=1;shape=mxgraph.flowchart.decision;whiteSpace=wrap;" vertex="1" parent="1">
          <mxGeometry x="375" y="130" width="100" height="100" as="geometry" />
        </mxCell>
        <mxCell id="1MM2bpCmUslDVCENX9zD-4" value="Upload File" style="rounded=1;whiteSpace=wrap;html=1;absoluteArcSize=1;arcSize=14;strokeWidth=2;" vertex="1" parent="1">
          <mxGeometry x="375" y="290" width="100" height="100" as="geometry" />
        </mxCell>
        <mxCell id="1MM2bpCmUslDVCENX9zD-6" style="edgeStyle=orthogonalEdgeStyle;rounded=0;orthogonalLoop=1;jettySize=auto;html=1;exitX=0.5;exitY=1;exitDx=0;exitDy=0;exitPerimeter=0;entryX=0.5;entryY=0;entryDx=0;entryDy=0;entryPerimeter=0;" edge="1" parent="1" source="1MM2bpCmUslDVCENX9zD-2" target="1MM2bpCmUslDVCENX9zD-3">
          <mxGeometry relative="1" as="geometry" />
        </mxCell>
        <mxCell id="1MM2bpCmUslDVCENX9zD-7" value="&lt;font style=&quot;font-size: 19px;&quot;&gt;Login&lt;/font&gt;" style="rounded=1;whiteSpace=wrap;html=1;absoluteArcSize=1;arcSize=14;strokeWidth=2;" vertex="1" parent="1">
          <mxGeometry x="590" y="130" width="100" height="100" as="geometry" />
        </mxCell>
        <mxCell id="1MM2bpCmUslDVCENX9zD-9" style="edgeStyle=orthogonalEdgeStyle;rounded=0;orthogonalLoop=1;jettySize=auto;html=1;exitX=0.5;exitY=0;exitDx=0;exitDy=0;entryX=0.5;entryY=0;entryDx=0;entryDy=0;entryPerimeter=0;" edge="1" parent="1" source="1MM2bpCmUslDVCENX9zD-7" target="1MM2bpCmUslDVCENX9zD-3">
          <mxGeometry relative="1" as="geometry" />
        </mxCell>
      </root>
    </mxGraphModel>
  </diagram>
</mxfile>
